<svg xmlns="http://www.w3.org/2000/svg" viewBox="0 0 1203.99 620.92"><defs><style>.cls-1{opacity:0.25;}.cls-2{fill:#ef5350;stroke:#ef5350;}.cls-2,.cls-3{stroke-width:0.81px;}.cls-3{fill:#8dc647;stroke:#8dc647;}</style></defs><title>velas</title><g id="Capa_2" data-name="Capa 2"><g id="Capa_1-2" data-name="Capa 1"><g class="cls-1"><path class="cls-2" d="M.4,618.48v-8.13h16v8.13Zm8-8.13h0m0,8.13v2.44"/><path class="cls-3" d="M25.66,603.85V599h16v4.88Zm8-4.88h0m0,4.88h0"/><path class="cls-2" d="M50.92,603.85v-6.5h16v6.5Zm8-6.5h0m0,6.5v2.44"/><path class="cls-3" d="M76.18,599V387.67h16V599Zm8-211.3h0m0,211.3h0"/><path class="cls-2" d="M101.44,438.06V426.68h16v11.38Zm8-11.38h0m0,11.38v.81"/><path class="cls-2" d="M126.7,465.69V402.3h16v63.39Zm8-63.39h0m0,63.39v15.44"/><path class="cls-2" d="M152,504.7V495h16v9.75Zm8-9.75h0m0,9.75v25.19"/><path class="cls-3" d="M177.22,538.83v-9.75h16v9.75Zm8-9.75h0m0,9.75v26.82"/><path class="cls-2" d="M202.48,532.33v-3.25h16v3.25Zm8-3.25v-5.69m0,8.94h0"/><path class="cls-3" d="M227.74,534V517.7h16V534Zm8-16.26h0m0,16.26v.81"/><path class="cls-2" d="M253,522.58v-9.75h16v9.75Zm8-9.75h0m0,9.75h0"/><path class="cls-2" d="M278.26,508v-1.63h16V508Zm8-1.63h0m0,1.63V512"/><path class="cls-3" d="M303.52,491.7V477.07h16V491.7Zm8-14.63h0m0,14.63v18.69"/><path class="cls-3" d="M328.78,475.44v-3.25h16v3.25Zm8-3.25v-7.31m0,10.56V486"/><path class="cls-2" d="M354,499.82V472.19h16v27.63Zm8-27.63h0m0,27.63v2.44"/><path class="cls-3" d="M379.3,485.19v-32.5h16v32.5Zm8-32.5h0m0,32.5h0"/><path class="cls-2" d="M404.56,444.56V407.17h16v37.39Zm8-37.39h0m0,37.39h0"/><path class="cls-2" d="M429.82,421.8v-1.62h16v1.62Zm8-1.62v-5.69m0,7.31h0"/><path class="cls-3" d="M455.08,423.43V403.92h16v19.51Zm8-19.51V390.11m0,33.32h0"/><path class="cls-3" d="M480.34,397.42V376.29h16v21.13Zm8-21.13h0m0,21.13V408"/><path class="cls-2" d="M505.59,488.44V447.81h16v40.63Zm8-40.63h0m0,40.63h0"/><path class="cls-3" d="M530.85,462.44v-4.88h16v4.88Zm8-4.88h0m0,4.88v5.69"/><path class="cls-2" d="M556.11,467.31V449.43h16v17.88Zm8-17.88h0m0,17.88v7.32"/><path class="cls-2" d="M581.37,508V472.19h16V508Zm8-35.76h0m0,35.76v31.7"/><path class="cls-2" d="M606.63,501.45V490.07h16v11.38Zm8-11.38h0m0,11.38h0"/><path class="cls-2" d="M631.89,519.33v-6.5h16v6.5Zm8-6.5h0m0,6.5v7.31"/><path class="cls-3" d="M657.15,519.33V495h16v24.38Zm8-24.38v-2.44m0,26.82h0"/><path class="cls-3" d="M682.41,495V478.69h16V495Zm8-16.26h0m0,16.26v2.43"/><path class="cls-3" d="M707.67,483.57v-3.25h16v3.25Zm8-3.25V464.88m0,18.69h0"/><path class="cls-3" d="M732.93,472.19v-8.13h16v8.13Zm8-8.13h0m0,8.13v12.19"/><path class="cls-3" d="M758.19,449.43v-13h16v13Zm8-13V422.61m0,26.82h0"/><path class="cls-3" d="M783.45,397.42V377.91h16v19.51Zm8-19.51V369m0,28.45h0"/><path class="cls-3" d="M808.71,351.91V322.65h16v29.26Zm8-29.26V281.2m0,70.71h0"/><path class="cls-3" d="M834,363.29v-69.9h16v69.9Zm8-69.9V261.7m0,101.59h0"/><path class="cls-3" d="M859.23,278.76V251.13h16v27.63Zm8-27.63h0m0,27.63h0"/><path class="cls-2" d="M884.49,260.88V239.75h16v21.13Zm8-21.13h0m0,21.13v5.69"/><path class="cls-3" d="M909.75,225.12V152h16v73.14Zm8-73.14V94.28m0,130.84h0"/><path class="cls-3" d="M935,124.35V77.21h16v47.14Zm8-47.14h0m0,47.14v25.19"/><path class="cls-2" d="M960.27,176.36V30.07h16V176.36Zm8-146.29h0m0,146.29h0"/><path class="cls-2" d="M985.53,147.1V116.22h16V147.1Zm8-30.88V58.52m0,88.58h0"/><path class="cls-2" d="M1010.79,130.85V106.47h16v24.38Zm8-24.38V4.88m0,126h0"/><path class="cls-3" d="M1036.05,124.35V64.2h16v60.15Zm8-60.15h0m0,60.15h0"/><path class="cls-2" d="M1061.31,56.08V25.19h16V56.08Zm8-30.89V0m0,56.08h0"/><path class="cls-2" d="M1086.57,161.73V91.84h16v69.89Zm8-69.89h0m0,69.89h0"/><path class="cls-2" d="M1111.82,228.37V169.86h16v58.51Zm8-58.51V149.54m0,78.83h0"/><path class="cls-3" d="M1137.08,200.74v-3.25h16v3.25Zm8-3.25V191.8m0,8.94v44.7"/><path class="cls-2" d="M1162.34,181.24V163.36h16v17.88Zm8-17.88h0m0,17.88v-.82"/><path class="cls-2" d="M1187.6,189.36v-1.62h16v1.62Zm8-1.62h0m0,1.62h0"/></g></g></g></svg>