<?xml version="1.0" encoding="utf-8"?>
<!-- Generator: Adobe Illustrator 21.0.0, SVG Export Plug-In . SVG Version: 6.00 Build 0)  -->
<svg version="1.1" id="Capa_1" xmlns="http://www.w3.org/2000/svg" xmlns:xlink="http://www.w3.org/1999/xlink" x="0px" y="0px"
	 viewBox="0 0 118.2 149" style="enable-background:new 0 0 118.2 149;" xml:space="preserve">
<style type="text/css">
	.st0{display:none;fill:#FFFFFF;}
	.st1{fill:#E4761B;stroke:#E4761B;stroke-width:0.23;stroke-miterlimit:23.8;}
	.st2{fill:#F6851B;stroke:#F6851B;stroke-width:0.23;stroke-miterlimit:23.8;}
	.st3{fill:#763D16;stroke:#763D16;stroke-width:0.23;stroke-miterlimit:23.8;}
	.st4{fill:#E2761B;stroke:#E2761B;stroke-width:0.23;stroke-miterlimit:23.8;}
	.st5{fill:#C0AD9E;stroke:#C0AD9E;stroke-width:0.23;stroke-miterlimit:23.8;}
	.st6{fill:#CD6116;stroke:#CD6116;stroke-width:0.23;stroke-miterlimit:23.8;}
	.st7{fill:#E4751F;stroke:#E4751F;stroke-width:0.23;stroke-miterlimit:23.8;}
	.st8{fill:#233447;stroke:#233447;stroke-width:0.23;stroke-miterlimit:23.8;}
	.st9{fill:#D7C1B3;stroke:#D7C1B3;stroke-width:0.23;stroke-miterlimit:23.8;}
	.st10{fill:#161616;stroke:#161616;stroke-width:0.23;stroke-miterlimit:23.8;}
	.st11{fill:#FFFFFF;}
	.st12{font-family:'GalanoGrotesque-SemiBold';}
	.st13{font-size:18.55px;}
</style>
<title>metamask_1</title>
<g id="Capa_2">
	<g id="Capa_1-2">
		<path class="st0" d="M23,0h72.3c12.7,0,23,10.3,23,23v72.3c0,12.7-10.3,23-23,23H23c-12.7,0-23-10.3-23-23V23C0,10.3,10.3,0,23,0z
			"/>
		<path class="st1" d="M99.3,77.4l-5.5,18.7l-10.8-3L99.3,77.4z"/>
		<path class="st1" d="M82.9,93.1l10.5-14.3l5.9-1.4L82.9,93.1z"/>
		<path class="st2" d="M91.2,63.3l8.1,14.1l-5.9,1.4L91.2,63.3z M91.2,63.3l5.2-3.6l2.9,17.7L91.2,63.3z"/>
		<path class="st3" d="M84.5,52.6l15-6.2l-0.7,3.4L84.5,52.6z M98.3,53.9l-13.8-1.3l14.3-2.8L98.3,53.9z"/>
		<path class="st3" d="M98.3,53.9l-1.9,5.8l-11.9-7L98.3,53.9z M101.3,47.9l-2.5,2l0.7-3.4L101.3,47.9z M98.3,53.9l0.5-4.1l2,1.7
			L98.3,53.9z"/>
		<path class="st4" d="M71.3,88.5l3.7,1.2l7.9,3.3L71.3,88.5z"/>
		<path class="st3" d="M96.4,59.7l1.9-5.8l1.7,1.3L96.4,59.7z M96.4,59.7l-15.6-5.1l3.7-1.9L96.4,59.7z"/>
		<path class="st3" d="M88.2,35l-3.7,17.6l-3.7,1.9L88.2,35z"/>
		<path class="st3" d="M99.6,46.5l-15,6.2L88.2,35L99.6,46.5z"/>
		<path class="st3" d="M88.2,35l15.7-1.8l-4.4,13.3L88.2,35z"/>
		<path class="st2" d="M96.4,59.7l-5.2,3.6l-10.4-8.8L96.4,59.7z"/>
		<path class="st3" d="M103.3,20.5l0.7,12.7L88.2,35L103.3,20.5z"/>
		<path class="st4" d="M103.3,20.5L71.9,43.3l-0.4-15.5L103.3,20.5z"/>
		<path class="st2" d="M48.1,26l23.3,1.9l0.4,15.5L48.1,26z"/>
		<path class="st3" d="M80.8,54.5l-8.9-11.2L88.2,35L80.8,54.5z"/>
		<path class="st1" d="M80.8,54.5l10.4,8.8l-14.6,1.6L80.8,54.5z"/>
		<path class="st1" d="M76.6,64.9l-4.7-21.6l8.9,11.2L76.6,64.9z"/>
		<path class="st3" d="M88.2,35l-16.4,8.3l31.4-22.8L88.2,35z"/>
		<path class="st5" d="M48.3,92.7l7.4,7.7l-10.1-9.2L48.3,92.7z"/>
		<path class="st6" d="M82.9,93.1l3.5-13.3l7-1L82.9,93.1z"/>
		<path class="st4" d="M18.3,55.6l12.8-13.5L20,54L18.3,55.6z"/>
		<path class="st2" d="M93.4,78.8l-7,1l4.7-16.5L93.4,78.8z M71.9,43.3l-12.5-0.4L48.1,26L71.9,43.3z"/>
		<path class="st7" d="M91.2,63.3l-4.7,16.5l-0.4-8L91.2,63.3z"/>
		<path class="st6" d="M76.6,64.9l14.6-1.6l-5.1,8.4L76.6,64.9z"/>
		<path class="st2" d="M59.4,42.9l12.5,0.4l4.7,21.6L59.4,42.9z"/>
		<path class="st1" d="M59.4,42.9L25.7,11.7L48.1,26L59.4,42.9z M48.1,97.5l-29.3,9.1L13,84.2L48.1,97.5z"/>
		<path class="st3" d="M22.7,61.1l11-8.7l9.3,2.2L22.7,61.1z"/>
		<path class="st3" d="M43,54.6l-9.3-2.2l5-20.5L43,54.6z"/>
		<path class="st3" d="M20,54l13.7-1.5l-11,8.7L20,54z"/>
		<path class="st6" d="M86.1,71.7l-5.7-2.9l-3.7-3.9L86.1,71.7z"/>
		<path class="st3" d="M20,54l-1-5.1l14.7,3.7L20,54z"/>
		<path class="st8" d="M79.2,75.3l1.2-6.5l5.7,2.9L79.2,75.3z"/>
		<path class="st2" d="M86.4,79.8l-7.3-4.4l6.9-3.6L86.4,79.8z"/>
		<path class="st3" d="M33.7,52.5L19,48.8l-1.2-4.3L33.7,52.5z M38.7,32l-5,20.5l-15.9-8L38.7,32z M38.7,32l20.7,10.9L43,54.6
			L38.7,32z"/>
		<path class="st1" d="M43,54.6l16.4-11.7l7.3,22.4L43,54.6z M66.7,65.2L44,64.8l-1-10.2L66.7,65.2z"/>
		<path class="st2" d="M22.7,61.1L43,54.6l1,10.2L22.7,61.1z M76.7,64.9l-9.9,0.3l-7.4-22.3L76.7,64.9z"/>
		<path class="st6" d="M80.3,68.8l-1.2,6.5l-2.6-10.4L80.3,68.8z"/>
		<path class="st3" d="M25.7,11.7l33.7,31.2L38.7,32L25.7,11.7z"/>
		<path class="st1" d="M13,84.2L41.4,83l6.7,14.4L13,84.2z"/>
		<path class="st6" d="M48.1,97.5L41.4,83l14-0.7L48.1,97.5z"/>
		<path class="st2" d="M79.2,75.3l7.3,4.4l4,9.4L79.2,75.3z M44,64.8L13,84.2l9.6-23.1L44,64.8z M41.4,83L13,84.2l31-19.4L41.4,83z
			 M76.6,64.9l1.9,6.8l-9,0.5L76.6,64.9z M69.5,72.2l-2.8-6.9l9.9-0.3L69.5,72.2z"/>
		<path class="st5" d="M55.8,100.4l-7.6-3l26.5,4.5L55.8,100.4z"/>
		<path class="st3" d="M22.7,61.1l-4.4-5.6L20,54L22.7,61.1z"/>
		<path class="st9" d="M77.7,98.6l-3,3.3l-26.6-4.5L77.7,98.6z"/>
		<path class="st1" d="M79.1,90.5l-31,6.9l7.3-15.1L79.1,90.5z"/>
		<path class="st9" d="M48.1,97.5l31-6.9l-1.4,8.1L48.1,97.5z"/>
		<path class="st3" d="M17.8,44.5l-1-17.4L38.7,32L17.8,44.5z M20,54l-3-3.1l2-2.1L20,54z"/>
		<path class="st6" d="M61.6,69.7l5.1-4.5l-0.7,11L61.6,69.7z"/>
		<path class="st6" d="M66.7,65.2l-5.1,4.5l-7.4,3.8L66.7,65.2z"/>
		<path class="st2" d="M90.4,89.2l-1.4-1l-9.9-12.9L90.4,89.2z"/>
		<path class="st6" d="M54.3,73.5L44,64.8l22.7,0.5L54.3,73.5z"/>
		<path class="st7" d="M66,76.2l0.7-11l2.8,6.9L66,76.2z"/>
		<path class="st3" d="M16,46.2l1.8-1.7l1.2,4.3L16,46.2z"/>
		<path class="st8" d="M66,76.2l-11.7-2.7l7.4-3.8L66,76.2z"/>
		<path class="st3" d="M38.7,32l-21.9-4.9l9-15.4L38.7,32z"/>
		<path class="st5" d="M74.7,101.9l1.3,3.4l-20.2-4.9L74.7,101.9z"/>
		<path class="st2" d="M55.4,82.3l-1.1-8.8L66,76.2L55.4,82.3z"/>
		<path class="st7" d="M44,64.8l10.2,8.8l1.1,8.8L44,64.8z"/>
		<path class="st2" d="M69.5,72.2l9-0.5l10.6,16.5L69.5,72.2z M44,64.8l11.4,17.6l-14,0.7L44,64.8z"/>
		<path class="st7" d="M69.5,72.2l11.1,17L66,76.2L69.5,72.2z"/>
		<path class="st2" d="M66,76.2l14.6,12.9l-1.5,1.4L66,76.2z"/>
		<path class="st2" d="M79.1,90.5l-23.7-8.2L66,76.2L79.1,90.5z M89.1,88.2l-8.4,1l-11.1-17L89.1,88.2z"/>
		<path class="st5" d="M91.3,96.2l-3.6,7.3l-11.8,1.9L91.3,96.2z M75.9,105.3l-1.3-3.4l3-3.3L75.9,105.3z"/>
		<path class="st5" d="M77.7,98.6l2.2-0.9l-4,7.6L77.7,98.6z M75.9,105.3l4-7.6l11.4-1.6L75.9,105.3z"/>
		<path class="st10" d="M89.1,88.2l2.8,1.7l-8.5,1L89.1,88.2z"/>
		<path class="st10" d="M83.4,90.9l-2.7-1.8l8.4-1L83.4,90.9z M82.4,92.2L92.7,91l-1.4,5.2L82.4,92.2z"/>
		<path class="st10" d="M91.3,96.2l-11.4,1.6l2.5-5.5L91.3,96.2z M79.9,97.7l-2.2,0.9l1.4-8.1L79.9,97.7z M79.1,90.5l1.5-1.4
			l2.7,1.8L79.1,90.5z M91.8,89.9l0.9,1.1l-10.3,1.3L91.8,89.9z"/>
		<path class="st10" d="M82.4,92.2l1-1.3l8.5-1L82.4,92.2z M79.1,90.5l3.3,1.7l-2.5,5.5L79.1,90.5z"/>
		<path class="st10" d="M83.4,90.9l-1,1.3l-3.3-1.7L83.4,90.9z"/>
		<text transform="matrix(1 0 0 1 10.95 128.12)" class="st11 st12 st13">Me</text>
		<text transform="matrix(1 0 0 1 38.2 128.12)" class="st11 st12 st13">t</text>
		<text transform="matrix(1 0 0 1 45.63 128.12)" class="st11 st12 st13">amask</text>
	</g>
</g>
</svg>
