<svg id="Capa_1" data-name="Capa 1" xmlns="http://www.w3.org/2000/svg" viewBox="0 0 28.2 29.31"><defs><style>.cls-1{fill:#e4761b;stroke:#e4761b;}.cls-1,.cls-10,.cls-2,.cls-3,.cls-4,.cls-5,.cls-6,.cls-7,.cls-8,.cls-9{stroke-miterlimit:23.8;stroke-width:0.07px;}.cls-2{fill:#f6851b;stroke:#f6851b;}.cls-3{fill:#763d16;stroke:#763d16;}.cls-4{fill:#e2761b;stroke:#e2761b;}.cls-5{fill:#c0ad9e;stroke:#c0ad9e;}.cls-6{fill:#cd6116;stroke:#cd6116;}.cls-7{fill:#e4751f;stroke:#e4751f;}.cls-8{fill:#233447;stroke:#233447;}.cls-9{fill:#d7c1b3;stroke:#d7c1b3;}.cls-10{fill:#161616;stroke:#161616;}</style></defs><title>metamask_1</title><g id="Capa_2" data-name="Capa 2"><g id="Capa_1-2" data-name="Capa 1-2"><path class="cls-1" d="M29,20.34l-1.69,5.72L24,25.15Z" transform="translate(-2.36 0.01)"/><path class="cls-1" d="M23.94,25.15l3.2-4.39L29,20.34Z" transform="translate(-2.36 0.01)"/><path class="cls-2" d="M26.46,16,29,20.34l-1.81.42Zm0,0,1.6-1.11L29,20.34Z" transform="translate(-2.36 0.01)"/><path class="cls-3" d="M24.42,12.77,29,10.88l-.23,1Zm4.23.38-4.23-.38,4.38-.86Z" transform="translate(-2.36 0.01)"/><path class="cls-3" d="M28.65,13.15l-.59,1.77-3.64-2.15Zm.93-1.83-.78.59.23-1Zm-.93,1.83.15-1.24.62.52Z" transform="translate(-2.36 0.01)"/><path class="cls-4" d="M20.37,23.76l1.15.37,2.42,1Z" transform="translate(-2.36 0.01)"/><path class="cls-3" d="M28.06,14.92l.59-1.77.51.39Zm0,0-4.77-1.58,1.13-.57Z" transform="translate(-2.36 0.01)"/><path class="cls-3" d="M25.56,7.36l-1.14,5.41-1.13.57Z" transform="translate(-2.36 0.01)"/><path class="cls-3" d="M29,10.88l-4.61,1.89,1.14-5.41Z" transform="translate(-2.36 0.01)"/><path class="cls-3" d="M25.56,7.36l4.81-.55L29,10.88Z" transform="translate(-2.36 0.01)"/><path class="cls-2" d="M28.06,14.92,26.46,16l-3.17-2.69Z" transform="translate(-2.36 0.01)"/><path class="cls-3" d="M30.16,2.92l.21,3.89-4.81.55Z" transform="translate(-2.36 0.01)"/><path class="cls-4" d="M30.16,2.92l-9.61,7-.12-4.73Z" transform="translate(-2.36 0.01)"/><path class="cls-2" d="M13.29,4.6l7.14.57.12,4.73Z" transform="translate(-2.36 0.01)"/><path class="cls-3" d="M23.29,13.34,20.55,9.9l5-2.54Z" transform="translate(-2.36 0.01)"/><path class="cls-1" d="M23.29,13.34,26.46,16,22,16.52Z" transform="translate(-2.36 0.01)"/><path class="cls-1" d="M22,16.52,20.55,9.9l2.74,3.44Z" transform="translate(-2.36 0.01)"/><path class="cls-3" d="M25.56,7.36l-5,2.54,9.61-7Z" transform="translate(-2.36 0.01)"/><path class="cls-5" d="M13.35,25l2.27,2.37L12.53,24.6Z" transform="translate(-2.36 0.01)"/><path class="cls-6" d="M23.94,25.15,25,21.07l2.13-.31Z" transform="translate(-2.36 0.01)"/><path class="cls-4" d="M4.15,13.66,8.08,9.53,4.66,13.17Z" transform="translate(-2.36 0.01)"/><path class="cls-2" d="M27.14,20.76,25,21.07l1.45-5ZM20.55,9.9l-3.82-.12L13.29,4.6Z" transform="translate(-2.36 0.01)"/><path class="cls-7" d="M26.46,16,25,21l-.11-2.4Z" transform="translate(-2.36 0.01)"/><path class="cls-6" d="M22,16.52,26.46,16,24.9,18.6Z" transform="translate(-2.36 0.01)"/><path class="cls-2" d="M16.73,9.78l3.82.12L22,16.52Z" transform="translate(-2.36 0.01)"/><path class="cls-1" d="M16.73,9.78,6.42.23,13.29,4.6ZM13.28,26.49l-9,2.77L2.53,22.43Z" transform="translate(-2.36 0.01)"/><path class="cls-3" d="M5.48,15.37l3.39-2.66,2.83.66Z" transform="translate(-2.36 0.01)"/><path class="cls-3" d="M11.7,13.37l-2.83-.66,1.52-6.27Z" transform="translate(-2.36 0.01)"/><path class="cls-3" d="M4.66,13.17l4.21-.46L5.48,15.37Z" transform="translate(-2.36 0.01)"/><path class="cls-6" d="M24.9,18.6l-1.75-.88L22,16.52Z" transform="translate(-2.36 0.01)"/><path class="cls-3" d="M4.66,13.17l-.3-1.58,4.51,1.12Z" transform="translate(-2.36 0.01)"/><path class="cls-8" d="M22.79,19.71l.36-2,1.75.88Z" transform="translate(-2.36 0.01)"/><path class="cls-2" d="M25,21.07l-2.22-1.36L24.9,18.6Z" transform="translate(-2.36 0.01)"/><path class="cls-3" d="M8.87,12.71,4.36,11.59,4,10.27Zm1.52-6.27L8.87,12.71,4,10.27Zm0,0,6.34,3.34-5,3.59Z" transform="translate(-2.36 0.01)"/><path class="cls-1" d="M11.7,13.37l5-3.59L19,16.62ZM19,16.62l-7-.14-.32-3.11Z" transform="translate(-2.36 0.01)"/><path class="cls-2" d="M5.48,15.37l6.22-2,.3,3.11ZM22,16.52l-3,.1L16.73,9.78Z" transform="translate(-2.36 0.01)"/><path class="cls-6" d="M23.15,17.72l-.36,2L22,16.52Z" transform="translate(-2.36 0.01)"/><path class="cls-3" d="M6.42.23,16.73,9.78,10.39,6.44Z" transform="translate(-2.36 0.01)"/><path class="cls-1" d="M2.53,22.43l8.7-.36,2,4.42Z" transform="translate(-2.36 0.01)"/><path class="cls-6" d="M13.28,26.49l-2-4.42,4.27-.21Z" transform="translate(-2.36 0.01)"/><path class="cls-2" d="M22.79,19.71,25,21.07,26.24,24ZM12,16.48l-9.47,6,3-7.06Zm-.79,5.59-8.7.36,9.49-6ZM22,16.52l.57,2.06-2.74.16Zm-2.17,2.22L19,16.62l3-.1Z" transform="translate(-2.36 0.01)"/><path class="cls-5" d="M15.62,27.41l-2.34-.92,8.13,1.37Z" transform="translate(-2.36 0.01)"/><path class="cls-3" d="M5.48,15.37,4.15,13.66l.51-.49Z" transform="translate(-2.36 0.01)"/><path class="cls-9" d="M22.33,26.84l-.92,1-8.13-1.37Z" transform="translate(-2.36 0.01)"/><path class="cls-1" d="M22.77,24.36l-9.49,2.13,2.22-4.63Z" transform="translate(-2.36 0.01)"/><path class="cls-9" d="M13.28,26.49l9.49-2.13-.44,2.48Z" transform="translate(-2.36 0.01)"/><path class="cls-3" d="M4,10.27,3.68,4.94l6.71,1.5Zm.67,2.9-.92-.94.62-.64Z" transform="translate(-2.36 0.01)"/><path class="cls-6" d="M17.42,18,19,16.62,18.75,20Z" transform="translate(-2.36 0.01)"/><path class="cls-6" d="M19,16.62,17.42,18l-2.26,1.18Z" transform="translate(-2.36 0.01)"/><path class="cls-2" d="M26.24,24l-.42-.31-3-3.94Z" transform="translate(-2.36 0.01)"/><path class="cls-6" d="M15.16,19.17,12,16.48l7,.14Z" transform="translate(-2.36 0.01)"/><path class="cls-7" d="M18.75,20,19,16.62l.86,2.12Z" transform="translate(-2.36 0.01)"/><path class="cls-3" d="M3.43,10.8,4,10.27l.37,1.32Z" transform="translate(-2.36 0.01)"/><path class="cls-8" d="M18.75,20l-3.59-.81L17.42,18Z" transform="translate(-2.36 0.01)"/><path class="cls-3" d="M10.39,6.44,3.68,4.94,6.42.23Z" transform="translate(-2.36 0.01)"/><path class="cls-5" d="M21.41,27.86l.38,1-6.17-1.49Z" transform="translate(-2.36 0.01)"/><path class="cls-2" d="M15.5,21.86l-.34-2.69,3.59.81Z" transform="translate(-2.36 0.01)"/><path class="cls-7" d="M12,16.48l3.14,2.69.34,2.69Z" transform="translate(-2.36 0.01)"/><path class="cls-2" d="M19.83,18.74l2.74-.16,3.25,5.07ZM12,16.48l3.48,5.38-4.27.21Z" transform="translate(-2.36 0.01)"/><path class="cls-7" d="M19.83,18.74l3.41,5.2-4.49-4Z" transform="translate(-2.36 0.01)"/><path class="cls-2" d="M18.75,20l4.49,4-.47.42Z" transform="translate(-2.36 0.01)"/><path class="cls-2" d="M22.77,24.36l-7.27-2.5L18.75,20Zm3-.71-2.58.29-3.41-5.2Z" transform="translate(-2.36 0.01)"/><path class="cls-5" d="M26.5,26.09l-1.11,2.22-3.6.59ZM21.79,28.9l-.38-1,.92-1Z" transform="translate(-2.36 0.01)"/><path class="cls-5" d="M22.33,26.84l.68-.27L21.79,28.9Zm-.54,2.06L23,26.57l3.49-.48Z" transform="translate(-2.36 0.01)"/><path class="cls-10" d="M25.82,23.65l.85.52-2.59.31Z" transform="translate(-2.36 0.01)"/><path class="cls-10" d="M24.08,24.48l-.84-.54,2.58-.29Zm-.3.41,3.15-.38-.43,1.58Z" transform="translate(-2.36 0.01)"/><path class="cls-10" d="M26.5,26.09l-3.5.48.77-1.68Zm-3.5.48-.68.27.44-2.48Zm-.24-2.21.47-.42.84.54Zm3.9-.19.26.34-3.15.38Z" transform="translate(-2.36 0.01)"/><path class="cls-10" d="M23.78,24.89l.3-.41,2.59-.31Zm-1-.53,1,.53L23,26.57Z" transform="translate(-2.36 0.01)"/><path class="cls-10" d="M24.08,24.48l-.3.41-1-.53Z" transform="translate(-2.36 0.01)"/></g></g></svg>