<?xml version="1.0" encoding="utf-8"?>
<!-- Generator: Adobe Illustrator 21.0.0, SVG Export Plug-In . SVG Version: 6.00 Build 0)  -->
<svg version="1.1" id="Capa_1" xmlns="http://www.w3.org/2000/svg" xmlns:xlink="http://www.w3.org/1999/xlink" x="0px" y="0px"
	 viewBox="0 0 121.1 149" style="enable-background:new 0 0 121.1 149;" xml:space="preserve">
<style type="text/css">
	.st0{enable-background:new    ;}
	.st1{fill:none;}
	.st2{fill:#00AEFF;}
	.st3{fill:#145EEF;}
	.st4{fill:#FFFFFF;}
	.st5{font-family:'GalanoGrotesque-SemiBold';}
	.st6{font-size:18.55px;}
	.st7{letter-spacing:-1;}
</style>
<title>poke</title>
<g id="Capa_2">
	<g id="Capa_1-2" class="st0">
		<path class="st1" d="M25.3,0h72.3c12.7,0,23,10.3,23,23v72.3c0,12.7-10.3,23-23,23H25.3c-12.7,0-23-10.3-23-23V23
			C2.3,10.3,12.6,0,25.3,0z"/>
		<polyline class="st2" points="48.4,25.9 22.4,25.9 22.4,53.7 36.2,53.7 36.2,101.4 59.2,101.4 59.2,95.6 		"/>
		<path class="st3" d="M71.8,95.4H48.4V20.1h37.2c0,0,24.2,5.9,22.2,32.4c0,0-2.2,19.5-23.2,23.4h-13L71.8,95.4z"/>
		<text transform="matrix(1 0 0 1 0 145.12)" class="st4 st5 st6 st7">T</text>
		<text transform="matrix(1 0 0 1 9.91 145.12)" class="st4 st5 st6">o</text>
		<text transform="matrix(1 0 0 1 21.13 145.12)" class="st4 st5 st6">k</text>
		<text transform="matrix(1 0 0 1 31.48 145.12)" class="st4 st5 st6">en Poc</text>
		<text transform="matrix(1 0 0 1 92.39 145.12)" class="st4 st5 st6">k</text>
		<text transform="matrix(1 0 0 1 102.74 145.12)" class="st4 st5 st6">et</text>
	</g>
</g>
</svg>
