<?xml version="1.0" encoding="utf-8"?>
<!-- Generator: Adobe Illustrator 21.0.0, SVG Export Plug-In . SVG Version: 6.00 Build 0)  -->
<svg version="1.1" id="Capa_1" xmlns="http://www.w3.org/2000/svg" xmlns:xlink="http://www.w3.org/1999/xlink" x="0px" y="0px"
	 viewBox="0 0 118.2 149" style="enable-background:new 0 0 118.2 149;" xml:space="preserve">
<style type="text/css">
	.st0{display:none;fill:#FFFFFF;}
	.st1{fill:#3375BB;}
	.st2{fill:#FFFFFF;}
	.st3{font-family:'GalanoGrotesque-SemiBold';}
	.st4{font-size:18.55px;}
</style>
<title>trustwallet</title>
<g id="Capa_2">
	<g id="Capa_1-2">
		<path class="st0" d="M23,0h72.3c12.7,0,23,10.3,23,23v72.3c0,12.7-10.3,23-23,23H23c-12.7,0-23-10.3-23-23V23C0,10.3,10.3,0,23,0z
			"/>
		<path class="st1" d="M100.7,30.9c-0.3,7.8-0.5,15.6-1,23.3c-0.4,7.2-1.4,14.3-2.8,21.4c-2.3,10.7-8,18.8-17.8,23.9
			c-6.6,3.3-12.9,7-19,11.2c-1.5,1.1-3.5,1.1-5,0c-6-4.2-12.4-8-19-11.2c-10.5-5.4-15.9-14.1-18-25.3c-1.2-6.5-2-13.2-2.4-19.8
			c-0.6-8-0.8-15.9-0.9-23.9c0-0.7-0.1-1.4-0.1-2c-0.4-2.5,1.3-4.9,3.8-5.3c0.3-0.1,0.7-0.1,1-0.1c6.2,0.1,12.4-0.6,18.4-2.3
			c5.9-1.7,11.5-4.6,16.3-8.4c2.6-2.1,4.3-2.1,6.8,0C68.2,18,77,21.6,86.1,22.5c3.2,0.4,6.4,0.5,9.7,0.5c3.1,0,4.8,1.8,4.8,4.9
			L100.7,30.9L100.7,30.9z M23.8,35.6c0.4,7.1,0.5,14.3,1.1,21.4c0.4,5.8,1.2,11.5,2.4,17.1c1.6,7.3,5.1,13.1,11.9,16.8
			c6,3.2,12,6.4,17.7,10.2c0.4,0.3,1.1,0.3,1.5-0.1c5.9-4,12.3-7.1,18.4-10.7c5.2-3,9-8,10.4-13.8c2.2-7.8,2.9-15.9,3.5-23.9
			c0.4-6.5,0.6-13,0.8-19.5c0-0.9-0.2-1.3-1.2-1.4c-1.8-0.1-3.5-0.3-5.3-0.5c-9.4-1-18.5-4.3-26.3-9.6c-0.7-0.6-1.7-0.6-2.3,0
			c-8.7,5.9-18.9,9.4-29.4,10c-4,0.3-3.2-0.5-3.3,3.4L23.8,35.6z"/>
		<text transform="matrix(1 0 0 1 3.46 142.12)" class="st2 st3 st4">T</text>
		<text transform="matrix(1 0 0 1 14.25 142.12)" class="st2 st3 st4">r</text>
		<text transform="matrix(1 0 0 1 22.04 142.12)" class="st2 st3 st4">u</text>
		<text transform="matrix(1 0 0 1 33.42 142.12)" class="st2 st3 st4">st </text>
		<text transform="matrix(1 0 0 1 55.02 142.12)" class="st2 st3 st4">W</text>
		<text transform="matrix(1 0 0 1 72.09 142.12)" class="st2 st3 st4">allet</text>
	</g>
</g>
</svg>
