<svg id="Capa_1" data-name="Capa 1" xmlns="http://www.w3.org/2000/svg" viewBox="0 0 24.68 29.04"><defs><style>.cls-1{fill:#fff;}</style></defs><title>trustwallet</title><g id="Capa_2" data-name="Capa 2"><g id="Capa_1-2" data-name="Capa 1-2"><path class="cls-1" d="M29.17,5.82c-.1,2.24-.15,4.48-.3,6.72a41.13,41.13,0,0,1-.81,6.14A9.49,9.49,0,0,1,23,25.55a46.07,46.07,0,0,0-5.46,3.23,1.14,1.14,0,0,1-1.42,0,41.66,41.66,0,0,0-5.46-3.23,9.68,9.68,0,0,1-5.19-7.3,47.26,47.26,0,0,1-.69-5.69c-.16-2.3-.24-4.59-.27-6.89V5.08A1.33,1.33,0,0,1,5.6,3.55l.19,0a19,19,0,0,0,5.3-.65A13.72,13.72,0,0,0,15.8.45,1.31,1.31,0,0,1,17.65.3l.15.15A13.88,13.88,0,0,0,25,3.38a25.75,25.75,0,0,0,2.78.15,1.25,1.25,0,0,1,1.37,1.4v.89ZM7,7.17c.11,2.05.14,4.11.32,6.16A39,39,0,0,0,8,18.26a6.76,6.76,0,0,0,3.43,4.83A49.82,49.82,0,0,1,16.58,26,.35.35,0,0,0,17,26c1.7-1.15,3.54-2,5.31-3.07a6.38,6.38,0,0,0,3-4,33.39,33.39,0,0,0,1-6.88c.13-1.87.16-3.75.24-5.62,0-.25-.06-.38-.35-.39-.51,0-1-.1-1.51-.15a16.15,16.15,0,0,1-7.58-2.78.52.52,0,0,0-.68,0A17,17,0,0,1,8,6c-1.14.09-.92-.16-.94,1Z" transform="translate(-4.49 0.01)"/></g></g></svg>